<svg width="48.000000" height="48.000000" viewBox="0 0 48 48" fill="none" xmlns="http://www.w3.org/2000/svg" xmlns:xlink="http://www.w3.org/1999/xlink">
	<desc>
			Created with Pixso.
	</desc>
	<defs/>
	<path id="bg-fullscreen" d="M2.29 13.88C2.17 13.9 2.04 13.92 1.92 13.92C1.79 13.92 1.66 13.9 1.54 13.88C1.42 13.85 1.3 13.82 1.18 13.77C1.06 13.72 0.95 13.66 0.85 13.59Q0.76 13.54 0.69 13.47Q0.62 13.42 0.56 13.35C0.47 13.26 0.39 13.17 0.32 13.06C0.25 12.96 0.19 12.85 0.14 12.73C0.09 12.61 0.06 12.49 0.03 12.37C0.01 12.25 0 12.12 0 12L0 3.86C0 3.73 0 3.61 0.01 3.48C0.03 3.35 0.04 3.23 0.07 3.1C0.09 2.98 0.12 2.86 0.16 2.74C0.2 2.62 0.24 2.5 0.29 2.38C0.34 2.26 0.39 2.15 0.45 2.04C0.51 1.93 0.58 1.82 0.65 1.71C0.72 1.61 0.79 1.51 0.87 1.41C0.95 1.31 1.04 1.22 1.13 1.13C1.22 1.04 1.31 0.95 1.41 0.87C1.51 0.79 1.61 0.72 1.71 0.65C1.82 0.58 1.93 0.51 2.04 0.45C2.15 0.39 2.26 0.34 2.38 0.29C2.5 0.24 2.62 0.2 2.74 0.16C2.86 0.12 2.98 0.09 3.1 0.07C3.23 0.04 3.35 0.03 3.48 0.01C3.61 0 3.73 0 3.86 0L12 0C12.12 0 12.25 0.01 12.37 0.03C12.5 0.06 12.62 0.09 12.73 0.14C12.85 0.19 12.96 0.25 13.07 0.32C13.17 0.39 13.27 0.47 13.36 0.56C13.45 0.65 13.53 0.75 13.6 0.85C13.67 0.96 13.73 1.07 13.78 1.19C13.83 1.3 13.86 1.43 13.89 1.55C13.91 1.67 13.93 1.8 13.93 1.93C13.93 2.05 13.91 2.18 13.89 2.3C13.86 2.43 13.83 2.55 13.78 2.67C13.73 2.78 13.67 2.89 13.6 3C13.53 3.1 13.45 3.2 13.36 3.29C13.27 3.38 13.17 3.46 13.07 3.53C12.96 3.6 12.85 3.66 12.73 3.71C12.62 3.76 12.5 3.8 12.37 3.82C12.25 3.85 12.12 3.86 12 3.86L3.84 3.86L3.84 12C3.84 12.12 3.82 12.25 3.8 12.37C3.77 12.49 3.74 12.61 3.69 12.73C3.64 12.85 3.58 12.96 3.51 13.06C3.44 13.17 3.36 13.26 3.27 13.35C3.18 13.44 3.09 13.52 2.98 13.59C2.88 13.66 2.77 13.72 2.65 13.77C2.53 13.82 2.41 13.85 2.29 13.88ZM36 0L44.13 0C44.26 0 44.38 0 44.51 0.01C44.64 0.03 44.76 0.04 44.89 0.07C45.01 0.09 45.13 0.12 45.25 0.16C45.37 0.2 45.49 0.24 45.61 0.29C45.73 0.34 45.84 0.39 45.95 0.45C46.06 0.51 46.17 0.58 46.28 0.65C46.38 0.72 46.48 0.79 46.58 0.87C46.68 0.95 46.77 1.04 46.86 1.13C46.95 1.22 47.04 1.31 47.12 1.41C47.2 1.51 47.27 1.61 47.34 1.71C47.41 1.82 47.48 1.93 47.54 2.04C47.6 2.15 47.65 2.26 47.7 2.38C47.75 2.5 47.79 2.62 47.83 2.74C47.87 2.86 47.9 2.98 47.92 3.1C47.95 3.23 47.96 3.35 47.98 3.48C47.99 3.61 48 3.73 48 3.86L48 12C48 12.12 47.98 12.25 47.96 12.37C47.93 12.5 47.9 12.62 47.85 12.73C47.8 12.85 47.74 12.96 47.67 13.07C47.6 13.17 47.52 13.27 47.43 13.36C47.34 13.45 47.24 13.53 47.14 13.6C47.03 13.67 46.92 13.73 46.8 13.78C46.69 13.83 46.56 13.86 46.44 13.89C46.32 13.91 46.19 13.93 46.06 13.93C45.94 13.93 45.81 13.91 45.69 13.89C45.56 13.86 45.44 13.83 45.32 13.78C45.21 13.73 45.1 13.67 44.99 13.6C44.89 13.53 44.79 13.45 44.7 13.36C44.61 13.27 44.53 13.17 44.46 13.07C44.39 12.96 44.33 12.85 44.28 12.73C44.23 12.62 44.19 12.5 44.17 12.37C44.14 12.25 44.13 12.12 44.13 12L44.13 3.86L36 3.86C35.87 3.86 35.74 3.85 35.62 3.82C35.49 3.8 35.37 3.76 35.26 3.71C35.14 3.66 35.03 3.6 34.92 3.53C34.82 3.46 34.72 3.38 34.63 3.29C34.54 3.2 34.46 3.1 34.39 3C34.32 2.89 34.26 2.78 34.21 2.67C34.16 2.55 34.13 2.43 34.1 2.3C34.08 2.18 34.06 2.05 34.06 1.93C34.06 1.8 34.08 1.67 34.1 1.55C34.13 1.43 34.16 1.3 34.21 1.19C34.26 1.07 34.32 0.96 34.39 0.85C34.46 0.75 34.54 0.65 34.63 0.56C34.72 0.47 34.82 0.39 34.92 0.32C35.03 0.25 35.14 0.19 35.26 0.14C35.37 0.09 35.49 0.06 35.62 0.03C35.74 0.01 35.87 0 36 0ZM33.85 10.28L14.14 10.28C11.57 10.28 10.28 11.57 10.28 14.14L10.28 33.85C10.28 36.42 11.57 37.71 14.14 37.71L33.85 37.71C36.42 37.71 37.71 36.42 37.71 33.85L37.71 14.14C37.71 11.57 36.42 10.28 33.85 10.28ZM3.86 44.13L12 44.13C12.12 44.13 12.25 44.14 12.37 44.17C12.5 44.19 12.62 44.23 12.73 44.28C12.85 44.33 12.96 44.39 13.07 44.46C13.17 44.53 13.27 44.61 13.36 44.7C13.45 44.79 13.53 44.89 13.6 44.99C13.67 45.1 13.73 45.21 13.78 45.32C13.83 45.44 13.86 45.56 13.89 45.69C13.91 45.81 13.93 45.94 13.93 46.06C13.93 46.19 13.91 46.32 13.89 46.44C13.86 46.56 13.83 46.69 13.78 46.8C13.73 46.92 13.67 47.03 13.6 47.14C13.53 47.24 13.45 47.34 13.36 47.43C13.27 47.52 13.17 47.6 13.07 47.67C12.96 47.74 12.85 47.8 12.73 47.85C12.62 47.9 12.5 47.93 12.37 47.96C12.25 47.98 12.12 48 12 48L3.86 48C3.73 48 3.61 47.99 3.48 47.98C3.35 47.96 3.23 47.95 3.1 47.92C2.98 47.9 2.86 47.87 2.74 47.83C2.62 47.79 2.5 47.75 2.38 47.7C2.26 47.65 2.15 47.6 2.04 47.54C1.93 47.48 1.82 47.41 1.71 47.34C1.61 47.27 1.51 47.2 1.41 47.12C1.31 47.04 1.22 46.95 1.13 46.86C1.04 46.77 0.95 46.68 0.87 46.58C0.79 46.48 0.72 46.38 0.65 46.28C0.58 46.17 0.51 46.06 0.45 45.95C0.39 45.84 0.34 45.73 0.29 45.61C0.24 45.49 0.2 45.37 0.16 45.25C0.12 45.13 0.09 45.01 0.07 44.89C0.04 44.76 0.03 44.64 0.01 44.51C0 44.38 0 44.26 0 44.13L0 36C0 35.87 0.01 35.74 0.03 35.62C0.06 35.49 0.09 35.37 0.14 35.26C0.19 35.14 0.25 35.03 0.32 34.92C0.39 34.82 0.47 34.72 0.56 34.63C0.65 34.54 0.75 34.46 0.85 34.39C0.96 34.32 1.07 34.26 1.19 34.21C1.3 34.16 1.43 34.13 1.55 34.1C1.67 34.08 1.8 34.06 1.93 34.06C2.05 34.06 2.18 34.08 2.3 34.1C2.43 34.13 2.55 34.16 2.67 34.21C2.78 34.26 2.89 34.32 3 34.39C3.1 34.46 3.2 34.54 3.29 34.63C3.38 34.72 3.46 34.82 3.53 34.92C3.6 35.03 3.66 35.14 3.71 35.26C3.76 35.37 3.8 35.49 3.82 35.62C3.85 35.74 3.86 35.87 3.86 36L3.86 44.13ZM45.7 34.11C45.82 34.09 45.95 34.08 46.08 34.08C46.2 34.08 46.33 34.09 46.45 34.11C46.57 34.14 46.69 34.17 46.81 34.22C46.93 34.27 47.04 34.33 47.14 34.4Q47.23 34.45 47.3 34.52Q47.37 34.57 47.43 34.64C47.52 34.73 47.6 34.82 47.67 34.93C47.74 35.03 47.8 35.14 47.85 35.26C47.9 35.38 47.93 35.5 47.96 35.62C47.98 35.74 48 35.87 48 36L48 44.13C48 44.26 47.99 44.38 47.98 44.51C47.96 44.64 47.95 44.76 47.92 44.89C47.9 45.01 47.87 45.13 47.83 45.25C47.79 45.37 47.75 45.49 47.7 45.61C47.65 45.73 47.6 45.84 47.54 45.95C47.48 46.06 47.41 46.17 47.34 46.28C47.27 46.38 47.2 46.48 47.12 46.58C47.04 46.68 46.95 46.77 46.86 46.86C46.77 46.95 46.68 47.04 46.58 47.12C46.48 47.2 46.38 47.27 46.28 47.34C46.17 47.41 46.06 47.48 45.95 47.54C45.84 47.6 45.73 47.65 45.61 47.7C45.49 47.75 45.37 47.79 45.25 47.83C45.13 47.87 45.01 47.9 44.89 47.92C44.76 47.95 44.64 47.96 44.51 47.98C44.38 47.99 44.26 48 44.13 48L36 48C35.87 48 35.74 47.98 35.62 47.96C35.49 47.93 35.37 47.9 35.26 47.85C35.14 47.8 35.03 47.74 34.92 47.67C34.82 47.6 34.72 47.52 34.63 47.43C34.54 47.34 34.46 47.24 34.39 47.14C34.32 47.03 34.26 46.92 34.21 46.8C34.16 46.69 34.13 46.56 34.1 46.44C34.08 46.32 34.06 46.19 34.06 46.06C34.06 45.94 34.08 45.81 34.1 45.69C34.13 45.56 34.16 45.44 34.21 45.32C34.26 45.21 34.32 45.1 34.39 44.99C34.46 44.89 34.54 44.79 34.63 44.7C34.72 44.61 34.82 44.53 34.92 44.46C35.03 44.39 35.14 44.33 35.26 44.28C35.37 44.23 35.49 44.19 35.62 44.17C35.74 44.14 35.87 44.13 36 44.13L44.16 44.13L44.16 36C44.16 35.87 44.17 35.74 44.19 35.62C44.22 35.5 44.25 35.38 44.3 35.26C44.35 35.14 44.41 35.03 44.48 34.93C44.55 34.82 44.63 34.73 44.72 34.64Q44.78 34.57 44.86 34.51Q44.93 34.45 45.01 34.4C45.11 34.33 45.22 34.27 45.34 34.22C45.46 34.17 45.58 34.14 45.7 34.11Z" fill="#8A8A8A" fill-opacity="1.000000" fill-rule="evenodd"/>
</svg>
