<svg width="48.000000" height="48.000000" viewBox="0 0 48 48" fill="none" xmlns="http://www.w3.org/2000/svg" xmlns:xlink="http://www.w3.org/1999/xlink">
	<desc>
			Created with Pixso.
	</desc>
	<defs/>
	<path id="cancel-full-screen" d="M9.05 34.1L3.92 34.1L3.92 28.1L19.32 28.1L19.32 43.26L13.28 43.26L13.28 38.21L4.22 47.68L0 43.57L9.05 34.1ZM38.94 34.1L48 43.57L43.77 48L34.71 38.52L34.71 43.57L28.67 43.57L28.67 28.42L44.07 28.42L44.07 34.42L38.94 34.42L38.94 34.1ZM9.05 12.63L1.2 4.42L5.13 0L13.28 8.52L13.28 3.47L19.32 3.47L19.32 18.63L3.92 18.63L3.92 12.63L9.05 12.63ZM39.54 12.63L44.07 12.63L44.07 18.63L28.67 18.63L28.67 3.47L34.71 3.47L34.71 8.84L43.16 0L47.39 4.42L39.54 12.63Z" fill="#8A8A8A" fill-opacity="1.000000" fill-rule="nonzero"/>
</svg>
