<svg width="48.000000" height="48.000000" viewBox="0 0 48 48" fill="none" xmlns="http://www.w3.org/2000/svg" xmlns:xlink="http://www.w3.org/1999/xlink">
	<desc>
			Created with Pixso.
	</desc>
	<defs/>
	<path id="path" d="M24 0C10.74 0 0 10.74 0 24C0 37.25 10.74 48 24 48C37.25 48 48 37.25 48 24C48 10.74 37.25 0 24 0ZM36.49 31.83C37.65 32.99 37.65 34.89 36.49 36.05L35.44 37.1C34.28 38.26 32.38 38.26 31.22 37.1L23.69 29.58L16.16 37.1C15 38.26 13.1 38.26 11.94 37.1L10.89 36.05C9.72 34.89 9.72 32.99 10.89 31.83L18.41 24.3L10.27 16.16C9.11 15 9.11 13.1 10.27 11.94L11.33 10.89C12.49 9.73 14.39 9.73 15.55 10.89L23.69 19.03L31.83 10.89C32.99 9.73 34.89 9.73 36.05 10.89L37.1 11.94C38.26 13.1 38.26 15 37.1 16.16L28.96 24.3L36.49 31.83Z" fill="#F92121" fill-opacity="1.000000" fill-rule="nonzero"/>
</svg>
