<svg width="48.000000" height="48.000000" viewBox="0 0 48 48" fill="none" xmlns="http://www.w3.org/2000/svg" xmlns:xlink="http://www.w3.org/1999/xlink">
	<desc>
			Created with Pixso.
	</desc>
	<defs/>
	<path id="font_size" d="M44.57 36L44.57 31.99L41.14 31.99L41.14 43.99L44.57 43.99L44.57 47.99L34.28 47.99L34.28 43.99L37.71 43.99L37.71 31.99L34.28 31.99L34.28 35.99L30.85 35.99L30.85 31.99C30.85 29.78 32.39 27.99 34.28 27.99L44.57 27.99C46.46 27.99 48 29.78 48 31.99L48 35.99L44.57 36ZM24 8L20.57 8L20.57 39.99L27.42 39.99L27.42 48L6.85 48L6.85 39.99L13.71 39.99L13.71 8L10.28 8C6.49 8 3.42 11.58 3.42 16L0 16L0 3.99C0 1.79 1.53 0 3.42 0L30.85 0C32.75 0 34.28 1.79 34.28 3.99L34.28 16L30.85 16C30.85 11.58 27.78 8 24 8Z" fill="#8A8A8A" fill-opacity="1.000000" fill-rule="nonzero"/>
</svg>
