<svg width="69.000000" height="53.000000" viewBox="0 0 69 53" fill="none" xmlns="http://www.w3.org/2000/svg" xmlns:xlink="http://www.w3.org/1999/xlink">
	<desc>
			Created with Pixso.
	</desc>
	<defs/>
	<path id="logo" d="M7.83 2.5L61.16 2.5C64.11 2.5 66.5 5.75 66.5 9.77L66.5 43.22C66.5 47.24 64.11 50.5 61.16 50.5L7.83 50.5C4.88 50.5 2.5 47.24 2.5 43.22L2.5 9.77C2.5 5.75 4.88 2.5 7.83 2.5Z" fill="#252525" fill-opacity="1.000000" fill-rule="evenodd"/>
	<path id="logo" d="M61.16 2.5C64.11 2.5 66.5 5.75 66.5 9.77L66.5 43.22C66.5 47.24 64.11 50.5 61.16 50.5L7.83 50.5C4.88 50.5 2.5 47.24 2.5 43.22L2.5 9.77C2.5 5.75 4.88 2.5 7.83 2.5L61.16 2.5ZM22.76 27.22L37.7 27.22M38.76 27.22L47.3 27.22M12.1 35.95L24.9 35.95M45.16 18.5L56.9 18.5" stroke="#FFFFFF" stroke-opacity="1.000000" stroke-width="5.000000"/>
</svg>
