<svg width="48.000000" height="48.000000" viewBox="0 0 48 48" fill="none" xmlns="http://www.w3.org/2000/svg" xmlns:xlink="http://www.w3.org/1999/xlink">
	<desc>
			Created with Pixso.
	</desc>
	<defs/>
	<path id="path" d="M24 0C24.39 0 24.78 0 25.17 0.02C25.56 0.04 25.96 0.07 26.35 0.11C26.74 0.15 27.13 0.2 27.52 0.25C27.91 0.31 28.29 0.38 28.68 0.46C29.06 0.53 29.45 0.62 29.83 0.71C30.21 0.81 30.59 0.91 30.96 1.03C31.34 1.14 31.71 1.27 32.08 1.4C32.45 1.53 32.82 1.67 33.18 1.82C33.54 1.97 33.9 2.13 34.26 2.3C34.61 2.47 34.96 2.64 35.31 2.83C35.65 3.01 36 3.21 36.33 3.41C36.67 3.61 37 3.82 37.33 4.04C37.66 4.26 37.98 4.48 38.29 4.72C38.61 4.95 38.92 5.19 39.22 5.44C39.52 5.69 39.82 5.95 40.11 6.21C40.4 6.48 40.69 6.75 40.97 7.02C41.24 7.3 41.51 7.59 41.78 7.88C42.04 8.17 42.3 8.47 42.55 8.77C42.8 9.07 43.04 9.38 43.27 9.7C43.51 10.01 43.73 10.33 43.95 10.66C44.17 10.99 44.38 11.32 44.58 11.66C44.78 11.99 44.98 12.34 45.16 12.68C45.35 13.03 45.52 13.38 45.69 13.73C45.86 14.09 46.02 14.45 46.17 14.81C46.32 15.17 46.46 15.54 46.59 15.91C46.72 16.28 46.85 16.65 46.96 17.03C47.08 17.4 47.18 17.78 47.28 18.16C47.37 18.54 47.46 18.93 47.53 19.31C47.61 19.7 47.68 20.09 47.74 20.47C47.79 20.86 47.84 21.25 47.88 21.64C47.92 22.03 47.95 22.43 47.97 22.82C47.99 23.21 48 23.6 48 24C48 24.39 47.99 24.78 47.97 25.17C47.95 25.56 47.92 25.96 47.88 26.35C47.84 26.74 47.79 27.13 47.74 27.52C47.68 27.91 47.61 28.29 47.53 28.68C47.46 29.06 47.37 29.45 47.28 29.83C47.18 30.21 47.08 30.59 46.96 30.96C46.85 31.34 46.72 31.71 46.59 32.08C46.46 32.45 46.32 32.82 46.17 33.18C46.02 33.54 45.86 33.9 45.69 34.26C45.52 34.61 45.35 34.96 45.16 35.31C44.98 35.65 44.78 36 44.58 36.33C44.38 36.67 44.17 37 43.95 37.33C43.73 37.66 43.51 37.98 43.27 38.29C43.04 38.61 42.8 38.92 42.55 39.22C42.3 39.52 42.04 39.82 41.78 40.11C41.51 40.4 41.24 40.69 40.97 40.97C40.69 41.24 40.4 41.51 40.11 41.78C39.82 42.04 39.52 42.3 39.22 42.55C38.92 42.8 38.61 43.04 38.29 43.27C37.98 43.51 37.66 43.73 37.33 43.95C37 44.17 36.67 44.38 36.33 44.58C36 44.78 35.65 44.98 35.31 45.16C34.96 45.35 34.61 45.52 34.26 45.69C33.9 45.86 33.54 46.02 33.18 46.17C32.82 46.32 32.45 46.46 32.08 46.59C31.71 46.72 31.34 46.85 30.96 46.96C30.59 47.08 30.21 47.18 29.83 47.28C29.45 47.37 29.06 47.46 28.68 47.53C28.29 47.61 27.91 47.68 27.52 47.74C27.13 47.79 26.74 47.84 26.35 47.88C25.96 47.92 25.56 47.95 25.17 47.97C24.78 47.99 24.39 48 24 48C23.6 48 23.21 47.99 22.82 47.97C22.43 47.95 22.03 47.92 21.64 47.88C21.25 47.84 20.86 47.79 20.47 47.74C20.08 47.68 19.7 47.61 19.31 47.53C18.93 47.46 18.54 47.37 18.16 47.28C17.78 47.18 17.4 47.08 17.03 46.96C16.65 46.85 16.28 46.72 15.91 46.59C15.54 46.46 15.17 46.32 14.81 46.17C14.45 46.02 14.09 45.86 13.73 45.69C13.38 45.52 13.03 45.35 12.68 45.16C12.34 44.98 11.99 44.78 11.66 44.58C11.32 44.38 10.99 44.17 10.66 43.95C10.33 43.73 10.01 43.51 9.7 43.27C9.38 43.04 9.07 42.8 8.77 42.55C8.47 42.3 8.17 42.04 7.88 41.78C7.59 41.51 7.3 41.24 7.02 40.97C6.75 40.69 6.48 40.4 6.21 40.11C5.95 39.82 5.69 39.52 5.44 39.22C5.19 38.92 4.95 38.61 4.72 38.29C4.48 37.98 4.26 37.66 4.04 37.33C3.82 37 3.61 36.67 3.41 36.33C3.21 36 3.01 35.65 2.83 35.31C2.64 34.96 2.47 34.61 2.3 34.26C2.13 33.9 1.97 33.54 1.82 33.18C1.67 32.82 1.53 32.45 1.4 32.08C1.27 31.71 1.14 31.34 1.03 30.96C0.91 30.59 0.81 30.21 0.71 29.83C0.62 29.45 0.53 29.06 0.46 28.68C0.38 28.29 0.31 27.91 0.25 27.52C0.2 27.13 0.15 26.74 0.11 26.35C0.07 25.96 0.04 25.56 0.02 25.17C0 24.78 0 24.39 0 24C0 23.6 0 23.21 0.02 22.82C0.04 22.43 0.07 22.03 0.11 21.64C0.15 21.25 0.2 20.86 0.25 20.47C0.31 20.09 0.38 19.7 0.46 19.31C0.53 18.93 0.62 18.54 0.71 18.16C0.81 17.78 0.91 17.4 1.03 17.03C1.14 16.65 1.27 16.28 1.4 15.91C1.53 15.54 1.67 15.17 1.82 14.81C1.97 14.45 2.13 14.09 2.3 13.73C2.47 13.38 2.64 13.03 2.83 12.68C3.01 12.34 3.21 11.99 3.41 11.66C3.61 11.32 3.82 10.99 4.04 10.66C4.26 10.33 4.48 10.01 4.72 9.7C4.95 9.38 5.19 9.07 5.44 8.77C5.69 8.47 5.95 8.17 6.21 7.88C6.48 7.59 6.75 7.3 7.02 7.02C7.3 6.75 7.59 6.48 7.88 6.21C8.17 5.95 8.47 5.69 8.77 5.44C9.07 5.19 9.38 4.95 9.7 4.72C10.01 4.48 10.33 4.26 10.66 4.04C10.99 3.82 11.32 3.61 11.66 3.41C11.99 3.21 12.34 3.01 12.68 2.83C13.03 2.64 13.38 2.47 13.73 2.3C14.09 2.13 14.45 1.97 14.81 1.82C15.17 1.67 15.54 1.53 15.91 1.4C16.28 1.27 16.65 1.14 17.03 1.03C17.4 0.91 17.78 0.81 18.16 0.71C18.54 0.62 18.93 0.53 19.31 0.46C19.7 0.38 20.08 0.31 20.47 0.25C20.86 0.2 21.25 0.15 21.64 0.11C22.03 0.07 22.43 0.04 22.82 0.02C23.21 0 23.6 0 24 0ZM14 24C14 21.73 10.82 21.21 10.1 23.36L8.1 29.36C8.06 29.48 8.03 29.6 8.01 29.73C8 29.85 7.99 29.98 8 30.11C8.01 30.23 8.02 30.35 8.05 30.48C8.08 30.6 8.12 30.72 8.18 30.83C8.23 30.95 8.29 31.06 8.37 31.16C8.44 31.26 8.52 31.36 8.61 31.44C8.7 31.53 8.8 31.61 8.91 31.68C9.01 31.74 9.12 31.8 9.24 31.85C9.36 31.9 9.48 31.93 9.6 31.96C9.72 31.98 9.85 32 9.97 32C10.1 32 10.22 31.99 10.35 31.97C10.47 31.94 10.59 31.91 10.71 31.87C10.83 31.82 10.94 31.77 11.05 31.7C11.16 31.63 11.26 31.56 11.35 31.47C11.44 31.39 11.52 31.29 11.6 31.19C11.67 31.09 11.74 30.98 11.8 30.87C11.94 31.13 12.09 31.38 12.26 31.63C12.42 31.88 12.59 32.13 12.77 32.36C12.94 32.6 13.13 32.83 13.32 33.06C13.51 33.29 13.71 33.51 13.92 33.72C14.12 33.94 14.34 34.14 14.55 34.34C14.77 34.54 15 34.74 15.23 34.92C15.46 35.11 15.7 35.29 15.94 35.46C16.19 35.63 16.43 35.79 16.69 35.95C16.94 36.1 17.2 36.25 17.46 36.39C17.72 36.52 17.99 36.65 18.26 36.78C18.53 36.9 18.81 37.01 19.09 37.12C19.36 37.22 19.65 37.31 19.93 37.4C20.21 37.49 20.5 37.56 20.79 37.63C21.08 37.7 21.37 37.76 21.66 37.81C21.96 37.86 22.25 37.9 22.55 37.93C22.84 37.96 23.14 37.98 23.43 37.99C23.73 38 24.03 38.01 24.32 38C24.62 37.99 24.92 37.98 25.21 37.95C25.51 37.92 25.8 37.89 26.1 37.84C26.39 37.8 26.68 37.75 26.97 37.68C27.26 37.62 27.55 37.55 27.84 37.47C28.12 37.38 28.41 37.29 28.68 37.19C28.96 37.09 29.24 36.99 29.51 36.87C29.79 36.75 30.06 36.63 30.32 36.49C30.59 36.36 30.85 36.21 31.1 36.06C31.36 35.91 31.61 35.75 31.85 35.59C32.1 35.42 32.34 35.25 32.57 35.06C32.81 34.88 33.04 34.69 33.26 34.5C33.48 34.3 33.7 34.09 33.91 33.88C34.12 33.67 34.32 33.46 34.52 33.23C34.71 33.01 34.9 32.78 35.08 32.55C35.26 32.31 35.44 32.07 35.6 31.82C35.67 31.71 35.73 31.6 35.78 31.48C35.82 31.36 35.86 31.24 35.88 31.11C35.91 30.98 35.92 30.85 35.91 30.73C35.91 30.6 35.9 30.47 35.87 30.34C35.85 30.22 35.81 30.09 35.76 29.98C35.71 29.86 35.65 29.74 35.58 29.64C35.5 29.53 35.42 29.43 35.33 29.34C35.24 29.25 35.14 29.17 35.04 29.09C34.93 29.02 34.82 28.96 34.7 28.91C34.58 28.86 34.46 28.82 34.33 28.79C34.2 28.77 34.08 28.75 33.95 28.75C33.82 28.75 33.69 28.76 33.56 28.78C33.44 28.8 33.31 28.84 33.19 28.89C33.07 28.93 32.96 28.99 32.85 29.06C32.74 29.13 32.64 29.21 32.54 29.29C32.45 29.38 32.37 29.48 32.29 29.58C32.06 29.92 31.81 30.24 31.55 30.55C31.28 30.86 30.99 31.15 30.69 31.42C30.39 31.69 30.07 31.95 29.73 32.18C29.4 32.42 29.05 32.63 28.69 32.82C28.33 33.01 27.96 33.18 27.58 33.33C27.2 33.47 26.81 33.6 26.42 33.7C26.02 33.79 25.62 33.87 25.21 33.92C24.81 33.97 24.4 33.99 24 34C23.67 34 23.34 33.98 23.01 33.95C22.69 33.91 22.37 33.87 22.04 33.8C21.72 33.74 21.41 33.66 21.09 33.56C20.78 33.47 20.47 33.36 20.17 33.23C19.87 33.11 19.57 32.97 19.28 32.81C18.99 32.66 18.71 32.49 18.44 32.31C18.17 32.13 17.9 31.93 17.65 31.73C17.4 31.52 17.16 31.3 16.92 31.07C16.69 30.83 16.47 30.59 16.26 30.34C16.06 30.09 15.86 29.82 15.68 29.55C15.5 29.28 15.33 29 15.18 28.71C15.02 28.42 14.88 28.12 14.76 27.82C14.63 27.52 14.52 27.21 14.43 26.9C14.33 26.58 14.25 26.27 14.19 25.95C14.12 25.62 14.08 25.3 14.04 24.98C14.01 24.65 14 24.32 14 24ZM24 10C19.14 10 14.72 12.49 12.16 16.51C12.09 16.62 12.03 16.74 11.99 16.86C11.94 16.98 11.9 17.11 11.88 17.24C11.86 17.37 11.85 17.5 11.85 17.63C11.86 17.76 11.87 17.89 11.9 18.02C11.93 18.15 11.97 18.27 12.02 18.39C12.08 18.51 12.14 18.63 12.22 18.73C12.29 18.84 12.38 18.94 12.47 19.03C12.57 19.12 12.67 19.2 12.78 19.27C12.89 19.34 13.01 19.4 13.13 19.45C13.26 19.49 13.38 19.53 13.51 19.55C13.64 19.57 13.77 19.58 13.9 19.58C14.03 19.58 14.16 19.56 14.29 19.53C14.42 19.5 14.54 19.46 14.66 19.41C14.78 19.36 14.9 19.29 15 19.22C15.11 19.14 15.21 19.06 15.3 18.96C15.39 18.87 15.47 18.76 15.54 18.65C15.69 18.42 15.84 18.2 16 17.99C16.16 17.77 16.33 17.57 16.51 17.36C16.69 17.16 16.87 16.97 17.07 16.78C17.26 16.6 17.46 16.42 17.67 16.25C17.88 16.08 18.09 15.92 18.31 15.77C18.54 15.61 18.76 15.47 18.99 15.34C19.23 15.2 19.47 15.08 19.71 14.96C19.95 14.85 20.2 14.74 20.45 14.65C20.7 14.55 20.95 14.47 21.21 14.39C21.47 14.32 21.73 14.25 21.99 14.2C22.26 14.14 22.52 14.1 22.79 14.07C23.06 14.04 23.32 14.01 23.59 14C23.86 13.99 24.13 13.99 24.4 14C24.67 14.01 24.93 14.04 25.2 14.07C25.47 14.1 25.73 14.14 26 14.2C26.26 14.25 26.52 14.32 26.78 14.39C27.03 14.47 27.29 14.55 27.54 14.65C27.79 14.74 28.04 14.85 28.28 14.96C28.52 15.08 28.76 15.2 28.99 15.34C29.23 15.47 29.45 15.61 29.68 15.77C29.9 15.92 30.11 16.08 30.32 16.25C30.53 16.42 30.73 16.6 30.92 16.78C31.12 16.97 31.3 17.16 31.48 17.36C31.66 17.57 31.83 17.77 31.99 17.99C32.15 18.2 32.3 18.42 32.45 18.65C32.59 18.88 32.72 19.11 32.85 19.35C32.97 19.59 33.09 19.83 33.19 20.08C33.3 20.32 33.4 20.57 33.48 20.83C33.57 21.08 33.64 21.34 33.7 21.6C33.77 21.86 33.82 22.13 33.87 22.39C33.91 22.66 33.94 22.92 33.96 23.19C33.98 23.46 34 23.73 34 24C34 26.13 36.81 26.72 37.74 24.98L37.89 24.63L39.89 18.63C39.93 18.51 39.96 18.39 39.97 18.26C39.99 18.14 39.99 18.01 39.99 17.89C39.98 17.76 39.96 17.64 39.93 17.52C39.9 17.4 39.86 17.28 39.81 17.16C39.75 17.05 39.69 16.94 39.62 16.84C39.54 16.74 39.46 16.64 39.37 16.56C39.28 16.47 39.18 16.39 39.08 16.32C38.97 16.26 38.86 16.2 38.74 16.15C38.63 16.1 38.51 16.07 38.39 16.04C38.26 16.02 38.14 16.01 38.01 16C37.89 16 37.76 16.01 37.64 16.04C37.52 16.06 37.4 16.09 37.28 16.14C37.16 16.18 37.05 16.24 36.94 16.3C36.84 16.37 36.74 16.44 36.64 16.53C36.55 16.61 36.47 16.7 36.39 16.8C36.32 16.9 36.25 17.01 36.2 17.12C35.89 16.58 35.55 16.07 35.18 15.57C34.81 15.08 34.41 14.61 33.97 14.17C33.54 13.73 33.08 13.32 32.59 12.94C32.1 12.56 31.59 12.22 31.06 11.91C30.53 11.59 29.98 11.32 29.4 11.08C28.83 10.84 28.25 10.64 27.65 10.48C27.06 10.32 26.45 10.2 25.84 10.12C25.23 10.04 24.61 9.99 24 10Z" fill="#F92121" fill-opacity="1.000000" fill-rule="nonzero"/>
</svg>
