<svg width="48.000000" height="48.000000" viewBox="0 0 48 48" fill="none" xmlns="http://www.w3.org/2000/svg" xmlns:xlink="http://www.w3.org/1999/xlink">
	<desc>
			Created with Pixso.
	</desc>
	<defs/>
	<path id="speed" d="M48 24C48 10.74 37.25 0 24 0C10.74 0 0 10.74 0 24C0 37.25 10.74 48 24 48C37.25 48 48 37.25 48 24ZM8.72 24L7.63 24L6.54 24C6.54 14.36 14.36 6.54 24 6.54C33.63 6.54 41.45 14.36 41.45 24L40.36 24L39.27 24C39.27 15.56 32.43 8.72 24 8.72C15.56 8.72 8.72 15.56 8.72 24ZM28.96 13.62L28.14 30.44L25.05 35.8L23.97 29.71L28.96 13.62Z" fill="#8A8A8A" fill-opacity="1.000000" fill-rule="nonzero"/>
</svg>
