<svg width="48.000000" height="48.000000" viewBox="0 0 48 48" fill="none" xmlns="http://www.w3.org/2000/svg" xmlns:xlink="http://www.w3.org/1999/xlink">
	<desc>
			Created with Pixso.
	</desc>
	<defs/>
	<path id="path" d="M24 0C10.8 0 0 10.73 0 24C0 37.19 10.73 48 24 48C37.26 48 48 37.26 48 24C48 10.8 37.27 0 24 0ZM22.67 30.84C22.67 31.31 22.29 31.7 21.81 31.7L16.71 31.7C16.24 31.7 15.85 31.31 15.85 30.84L15.85 17.65C15.85 17.18 16.24 16.79 16.71 16.79L21.81 16.79C22.29 16.79 22.67 17.18 22.67 17.65L22.67 30.84ZM32.27 30.84C32.27 31.31 31.88 31.7 31.41 31.7L26.31 31.7C25.83 31.7 25.45 31.31 25.45 30.84L25.45 17.65C25.45 17.18 25.83 16.79 26.31 16.79L31.41 16.79C31.88 16.79 32.27 17.18 32.27 17.65L32.27 30.84Z" fill="#FB7C1D" fill-opacity="1.000000" fill-rule="nonzero"/>
</svg>
