<svg width="48.000000" height="48.000000" viewBox="0 0 48 48" fill="none" xmlns="http://www.w3.org/2000/svg" xmlns:xlink="http://www.w3.org/1999/xlink">
	<desc>
			Created with Pixso.
	</desc>
	<defs/>
	<path id="total-time-consumption" d="M0 23.99C0 10.74 10.74 0 24 0C37.25 0 48 10.74 48 23.99C48 37.25 37.25 48 24 48C10.74 48 0 37.25 0 23.99ZM37.63 39.41C37.94 39.14 38.25 38.85 38.55 38.55C40.44 36.66 41.91 34.48 42.95 32.01C43.12 31.62 43.27 31.23 43.41 30.83C43.55 30.44 43.68 30.04 43.79 29.63C43.91 29.23 44.01 28.82 44.1 28.41C44.19 28 44.26 27.59 44.33 27.17C44.39 26.76 44.45 26.34 44.48 25.92C44.52 25.5 44.55 25.08 44.56 24.66C44.57 24.24 44.58 23.82 44.56 23.4C44.55 22.98 44.52 22.56 44.49 22.14C44.45 21.72 44.4 21.31 44.33 20.89C44.27 20.48 44.19 20.06 44.1 19.65C44.01 19.24 43.91 18.83 43.79 18.43C43.68 18.03 43.55 17.62 43.41 17.23C43.27 16.83 43.12 16.44 42.96 16.05C42.8 15.66 42.62 15.28 42.44 14.91C42.25 14.53 42.05 14.16 41.84 13.79C41.63 13.43 41.41 13.07 41.18 12.72C40.95 12.37 40.71 12.03 40.45 11.69C40.2 11.36 39.94 11.03 39.67 10.71C39.39 10.39 39.11 10.08 38.82 9.77C38.53 9.47 38.23 9.18 37.92 8.89C37.61 8.61 37.29 8.34 36.96 8.07C36.63 7.81 36.3 7.55 35.96 7.31C35.62 7.06 35.27 6.83 34.91 6.61C34.55 6.39 34.19 6.17 33.82 5.97C33.45 5.77 33.07 5.59 32.69 5.41C32.31 5.23 31.93 5.07 31.53 4.91C31.14 4.76 30.75 4.62 30.35 4.49C29.95 4.36 29.54 4.24 29.14 4.14C28.73 4.04 28.32 3.94 27.91 3.86C27.49 3.79 27.08 3.72 26.66 3.67C26.24 3.61 25.83 3.57 25.41 3.54C24.99 3.52 24.57 3.5 24.15 3.5C23.73 3.5 23.31 3.51 22.89 3.53C22.47 3.56 22.05 3.59 21.63 3.64C21.21 3.69 20.8 3.75 20.38 3.83C19.97 3.9 19.56 3.99 19.15 4.09C18.74 4.19 18.34 4.3 17.94 4.43C17.54 4.55 17.14 4.69 16.75 4.84C16.35 4.99 15.96 5.15 15.58 5.33C15.2 5.5 14.82 5.68 14.45 5.88C14.08 6.08 13.71 6.28 13.35 6.5C13 6.72 12.64 6.95 12.3 7.19Q12.06 7.36 11.82 7.54Q11.55 7.74 11.29 7.95C10.96 8.21 10.64 8.48 10.33 8.76C10.01 9.04 9.71 9.33 9.41 9.63C9.12 9.93 8.83 10.24 8.56 10.56C8.28 10.87 8.02 11.2 7.76 11.53C7.5 11.86 7.26 12.21 7.02 12.55C6.79 12.9 6.57 13.26 6.35 13.62C6.14 13.98 5.94 14.35 5.75 14.73C5.56 15.1 5.38 15.48 5.21 15.87C5.04 16.25 4.89 16.64 4.75 17.04C4.6 17.43 4.47 17.83 4.35 18.24C4.23 18.64 4.13 19.05 4.04 19.46C3.94 19.87 3.86 20.28 3.79 20.69C3.72 21.11 3.67 21.52 3.63 21.94C3.58 22.36 3.55 22.78 3.54 23.2C3.52 23.62 3.52 24.04 3.53 24.46C3.53 24.88 3.56 25.3 3.59 25.72C3.63 26.14 3.67 26.56 3.73 26.97C3.79 27.39 3.87 27.8 3.95 28.21C4.04 28.62 4.14 29.03 4.25 29.44C4.36 29.84 4.48 30.25 4.62 30.64C4.75 31.04 4.9 31.44 5.06 31.82C5.22 32.21 5.39 32.6 5.57 32.97C5.76 33.35 5.95 33.73 6.16 34.09C6.37 34.46 6.58 34.82 6.81 35.17C7.04 35.52 7.28 35.87 7.53 36.21C7.78 36.55 8.04 36.88 8.31 37.2C8.58 37.52 8.86 37.83 9.14 38.14C9.43 38.44 9.73 38.74 10.04 39.03C10.35 39.31 10.66 39.59 10.99 39.86C11.31 40.13 11.64 40.38 11.98 40.63C12.32 40.88 12.67 41.11 13.03 41.34C13.38 41.57 13.74 41.78 14.11 41.98C14.48 42.19 14.85 42.38 15.23 42.56C15.61 42.74 15.99 42.91 16.38 43.07C16.78 43.22 17.17 43.37 17.57 43.5C17.97 43.63 18.37 43.75 18.78 43.86C19.18 43.97 19.59 44.06 20 44.15C20.42 44.23 20.83 44.3 21.25 44.36C21.66 44.42 22.08 44.46 22.5 44.49C22.92 44.52 23.34 44.54 23.76 44.55C24.18 44.55 24.6 44.55 25.02 44.53C25.44 44.51 25.86 44.47 26.28 44.43C26.69 44.38 27.11 44.32 27.52 44.25C27.94 44.18 28.35 44.1 28.76 44C29.17 43.9 29.57 43.8 29.98 43.67C30.38 43.55 30.78 43.42 31.17 43.27C31.57 43.13 31.96 42.97 32.34 42.8C32.72 42.63 33.1 42.45 33.48 42.25C33.85 42.06 34.22 41.86 34.58 41.64C34.94 41.43 35.29 41.2 35.64 40.96C35.99 40.72 36.33 40.48 36.66 40.22C36.99 39.96 37.31 39.69 37.63 39.41ZM6.32 23.99C6.32 14.23 14.23 6.32 24 6.32C33.76 6.32 41.67 14.23 41.67 24C41.67 33.76 33.76 41.67 24 41.67C14.23 41.67 6.32 33.76 6.32 23.99ZM22.32 24.42L32.89 24.42C33 24.42 33.12 24.41 33.23 24.39C33.35 24.37 33.46 24.33 33.57 24.29C33.67 24.24 33.77 24.19 33.87 24.13C33.97 24.06 34.06 23.99 34.14 23.91C34.22 23.82 34.29 23.73 34.36 23.64C34.42 23.54 34.48 23.44 34.52 23.33C34.57 23.23 34.6 23.11 34.62 23C34.65 22.89 34.66 22.77 34.66 22.66C34.66 22.54 34.65 22.42 34.62 22.31C34.6 22.2 34.57 22.09 34.52 21.98C34.48 21.87 34.42 21.77 34.36 21.67C34.29 21.58 34.22 21.49 34.14 21.41C34.06 21.32 33.97 21.25 33.87 21.19C33.77 21.12 33.67 21.07 33.57 21.02C33.46 20.98 33.35 20.94 33.23 20.92C33.12 20.9 33 20.89 32.89 20.89L24.09 20.89L24.09 12.09C24.09 11.98 24.07 11.86 24.05 11.75C24.03 11.63 24 11.52 23.95 11.42C23.91 11.31 23.85 11.21 23.79 11.11C23.72 11.01 23.65 10.92 23.57 10.84C23.49 10.76 23.4 10.69 23.3 10.62C23.2 10.56 23.1 10.5 22.99 10.46C22.89 10.41 22.78 10.38 22.66 10.36C22.55 10.34 22.43 10.32 22.32 10.32C22.2 10.32 22.09 10.34 21.97 10.36C21.86 10.38 21.75 10.41 21.64 10.46C21.53 10.5 21.43 10.56 21.34 10.62C21.24 10.69 21.15 10.76 21.07 10.84C20.99 10.92 20.91 11.01 20.85 11.11C20.78 11.21 20.73 11.31 20.69 11.42C20.64 11.52 20.61 11.63 20.58 11.75C20.56 11.86 20.55 11.98 20.55 12.09L20.55 22.66C20.55 22.77 20.56 22.89 20.58 23C20.61 23.11 20.64 23.22 20.69 23.33C20.73 23.44 20.78 23.54 20.85 23.64C20.91 23.73 20.99 23.82 21.07 23.91C21.15 23.99 21.24 24.06 21.34 24.13C21.43 24.19 21.53 24.24 21.64 24.29C21.75 24.33 21.86 24.37 21.97 24.39C22.09 24.41 22.2 24.42 22.32 24.42Z" fill="#8A8A8A" fill-opacity="1.000000" fill-rule="evenodd"/>
</svg>
